<svg width="185" height="250" viewBox="0 0 185 250" fill="none" xmlns="http://www.w3.org/2000/svg">
<g clip-path="url(#clip0)">
<path d="M118.768 138.168C119.142 140.29 119.515 142.536 120.013 144.658C120.511 145.906 120.885 147.154 121.383 148.527C121.258 149.276 121.134 150.15 121.009 150.899C120.511 151.772 120.013 152.771 119.515 153.645C113.041 151.023 106.568 148.527 99.9693 145.906C97.4794 147.529 94.9895 149.026 92.4996 150.649C90.0097 149.026 87.5198 147.529 85.0299 145.906C78.5562 148.527 71.9579 151.023 65.4841 153.645C64.9862 152.771 64.6127 151.772 64.1147 150.899C63.9902 150.15 63.8657 149.276 63.7412 148.527C64.2392 147.279 64.6127 146.031 65.1107 144.658L65.2352 144.533C66.2311 141.163 67.1026 137.793 68.0985 134.423C73.8253 136.92 79.5521 139.541 85.2789 142.037C85.9014 134.673 86.3994 127.309 87.0218 119.196C89.1382 122.192 90.7567 124.438 92.7486 126.935C94.7405 124.189 96.4835 121.942 98.2264 119.571C98.8489 127.434 99.3469 134.673 99.9693 142.037C105.696 139.166 111.547 136.171 117.274 133.3C117.648 134.923 118.146 136.545 118.768 138.168Z" fill="#EA863E"/>
<path d="M31.4973 108.462C20.9152 97.2292 10.4576 86.1208 0 74.8877C0.124495 74.3884 0.373486 73.8892 0.497981 73.5147C9.21265 69.8952 17.8028 66.1508 26.5175 62.5312C27.2645 62.4064 28.1359 62.2816 28.8829 62.1568C29.2564 63.0305 29.7544 64.029 30.1279 64.9026C30.5013 76.5102 30.9993 88.1178 31.3728 99.8502C31.4973 102.596 31.4973 105.592 31.4973 108.462Z" fill="#CB5828"/>
<path d="M185 74.8877C174.543 86.1208 163.961 97.354 153.503 108.587L153.254 108.462C153.378 108.088 153.378 107.589 153.378 107.214C153.378 106.465 153.378 105.716 153.503 104.843C153.503 103.969 153.503 103.095 153.503 102.222C154.001 89.7404 154.374 77.2591 154.872 64.9026C155.246 64.029 155.744 63.1553 156.117 62.2816C156.989 62.4064 157.736 62.5312 158.607 62.656C167.322 66.2756 175.912 69.8952 184.627 73.5147C184.627 73.8892 184.876 74.3884 185 74.8877Z" fill="#CB5828"/>
<path d="M99.8457 142.162C99.3477 134.923 98.7252 127.559 98.1027 119.695C96.2353 122.192 94.6169 124.314 92.625 127.059C90.7575 124.438 89.1391 122.192 86.8982 119.321C86.2757 127.434 85.6532 134.798 85.1552 142.162C82.5408 133.799 80.0509 125.562 77.4365 117.199C77.4365 116.076 77.561 115.077 77.561 113.954C77.9345 113.704 78.1835 113.455 78.557 113.33C80.6734 114.204 82.6653 114.953 87.8941 116.95C86.7737 108.712 85.9022 103.095 85.1552 97.354C84.7817 93.984 84.2838 90.6141 83.9103 87.2441C84.2838 79.0065 84.5328 70.644 84.9062 62.4064C85.6532 62.2816 86.2757 62.2816 87.0227 62.1568C87.8941 70.8937 88.7656 79.6306 89.6371 88.3675C89.6371 92.1118 89.6371 95.981 89.6371 99.8502C92.5005 100.349 94.2434 100.599 95.8618 100.849C97.1068 105.966 98.3517 110.584 99.7212 116.076C102.336 114.953 104.328 114.079 106.195 113.205C106.568 113.33 106.942 113.58 107.191 113.829C107.315 114.953 107.315 115.951 107.44 117.074C104.95 125.562 102.46 133.799 99.8457 142.162Z" fill="#EC9E4A"/>
<path d="M112.045 188.467C112.419 190.464 112.792 192.586 113.166 194.583C113.415 195.831 113.539 196.955 113.788 198.203C114.037 199.076 114.162 200.075 114.411 200.949C99.7203 200.949 85.0298 200.949 70.4639 200.949C70.7129 200.075 70.8374 199.076 71.0863 198.203C71.5843 196.455 71.9578 194.708 72.4558 193.085C72.5803 191.588 72.7048 190.09 72.8293 188.592C73.2028 188.218 73.5763 187.718 73.9497 187.344C74.8212 188.842 75.8172 190.339 76.4396 191.338C87.5197 191.338 97.9773 191.338 108.684 191.338C109.306 190.09 110.178 188.717 110.925 187.344C111.298 187.718 111.672 188.093 112.045 188.467Z" fill="#E59528"/>
<path d="M30.2528 64.7778C29.8793 63.9041 29.3813 62.9056 29.0078 62.032C29.1323 61.5327 29.1323 61.1583 29.2568 60.659C29.6303 60.9086 30.0038 61.0335 30.3773 61.2831C38.2205 64.029 46.1882 66.8997 54.0314 69.6455C54.6538 70.02 55.4008 70.5192 56.0233 70.8937C52.2884 79.8802 48.6781 88.8667 44.8187 98.3525C46.3127 99.1014 47.5576 99.8502 48.9271 100.599C53.5334 102.846 58.0152 105.092 62.6215 107.339C62.6215 107.713 62.6215 108.088 62.497 108.462C60.0071 109.336 57.5172 110.21 55.0273 110.959C53.7824 110.959 52.5374 110.959 51.2925 110.834C49.425 108.837 47.5576 106.84 46.4371 105.592C42.2043 106.216 38.7184 106.715 35.1081 107.214C38.096 104.468 40.9594 101.722 44.3207 98.4773C39.5899 86.9945 34.8591 75.8862 30.2528 64.7778Z" fill="#D67629"/>
<path d="M66.2309 243.635C61.9981 245.132 57.7652 246.63 52.6609 248.377C49.673 239.391 46.8096 230.904 43.6973 221.792C49.424 216.425 55.1508 211.183 60.8776 205.941C63.741 207.189 66.1064 208.313 68.5963 209.311C68.7208 209.81 68.7208 210.31 68.8453 210.809C64.986 216.051 61.1266 221.293 57.6407 226.161C60.7531 232.651 63.492 238.143 66.2309 243.635Z" fill="#BF3627"/>
<path d="M116.403 209.311C118.893 208.188 121.258 207.189 124.121 205.941C129.724 211.058 135.326 216.176 141.302 221.668C138.314 230.529 135.575 239.016 132.463 248.377C127.483 246.63 123.125 245.132 118.768 243.635C121.507 238.143 124.246 232.651 127.483 226.535C123.872 221.543 120.013 216.176 116.278 210.934C116.154 210.31 116.278 209.81 116.403 209.311Z" fill="#BF3627"/>
<path d="M155.993 62.1568C155.619 63.0305 155.121 63.9041 154.748 64.7778C150.017 75.8862 145.41 86.9945 140.555 98.4773C143.916 101.598 146.78 104.468 149.768 107.214C144.788 105.092 139.808 103.095 134.828 100.974C136.447 100.225 138.19 99.6006 140.182 98.7269C136.322 89.2411 132.587 80.1298 128.853 70.8937C129.6 70.1448 130.346 69.3959 130.969 68.647C138.812 66.1508 146.655 63.7793 154.623 61.2831H155.121C155.619 61.4079 155.868 61.7823 155.993 62.1568Z" fill="#D67629"/>
<path d="M116.403 209.311C116.279 209.81 116.154 210.31 116.154 210.809C115.283 212.057 114.411 213.305 113.54 214.553C99.5965 214.553 85.5285 214.553 71.5851 214.553C70.7136 213.305 69.8421 212.057 68.9707 210.809C68.8462 210.31 68.8462 209.81 68.7217 209.311C69.3442 206.565 69.9666 203.694 70.5891 200.949C85.2796 200.949 99.97 200.949 114.536 200.949C115.158 203.694 115.781 206.565 116.403 209.311Z" fill="#D97529"/>
<path d="M68.8462 210.809C69.7176 212.057 70.5891 213.305 71.4606 214.553C73.079 219.92 74.6975 225.412 76.3159 230.779C78.3078 234.523 80.4242 238.143 82.4162 241.887C78.6813 244.508 75.0709 247.004 70.8381 249.875C69.0952 247.504 67.6012 245.507 66.2318 243.635C63.4929 238.143 60.8785 232.651 57.6416 226.161C61.1275 221.293 64.9868 216.051 68.8462 210.809Z" fill="#B42125"/>
<path d="M113.54 214.553C114.411 213.305 115.283 212.057 116.154 210.809C120.013 216.051 123.748 221.293 127.359 226.41C124.246 232.651 121.507 238.018 118.644 243.51C117.274 245.507 116.029 247.379 114.287 250C110.054 247.129 106.319 244.508 102.584 241.887C104.576 238.143 106.692 234.523 108.684 230.779C110.303 225.412 111.921 219.92 113.54 214.553Z" fill="#B42125"/>
<path d="M26.2682 35.0724C26.3927 35.4468 26.3927 35.8213 26.2682 36.1957C18.0515 47.4289 9.83485 58.662 1.61816 69.8952C1.99165 64.5282 2.48963 59.0364 2.86312 53.6695C2.86312 52.4214 2.86312 51.1732 2.86312 49.9251C2.86312 49.5507 2.86312 49.0514 2.86312 48.677C2.86312 48.3025 2.98761 47.9281 2.98761 47.4289C4.23257 41.9371 5.35302 36.4453 6.59798 31.0784C12.8227 32.3265 18.923 33.6994 25.1478 34.9476C25.5213 34.9476 25.8947 34.9476 26.2682 35.0724Z" fill="#ECB728"/>
<path d="M1.6185 69.8952C9.83519 58.662 18.0519 47.4289 26.3931 36.1957C27.14 42.0619 27.887 47.8033 28.634 53.6695C27.887 56.5402 27.2645 59.5357 26.5176 62.4064C17.8029 66.026 9.21272 69.7703 0.498047 73.3899C0.871533 72.2666 1.24502 71.0185 1.6185 69.8952Z" fill="#E29728"/>
<path d="M108.685 230.779C106.693 234.523 104.576 238.143 102.584 241.887C99.3476 244.009 96.1107 246.256 92.6248 248.627C89.2634 246.38 85.9021 244.134 82.5407 241.887C80.5488 238.143 78.4324 234.523 76.4404 230.779C87.147 230.779 97.8536 230.779 108.685 230.779Z" fill="#BF3627"/>
<path d="M158.358 31.4528C157.113 23.0904 155.868 14.8527 154.499 6.49026C154.873 5.49176 155.37 4.49326 155.744 3.49476C163.214 11.4828 170.808 19.4708 178.278 27.334C178.278 28.2077 178.278 29.0814 178.278 29.9551C172.053 31.7024 165.828 33.4498 159.603 35.1972V34.9476C159.23 33.8243 158.856 32.5761 158.358 31.4528Z" fill="#F8D63A"/>
<path d="M25.1484 34.8228C18.9237 33.5746 12.8234 32.2017 6.59863 30.9536C6.59863 29.7054 6.59863 28.5821 6.59863 27.334C14.0684 19.346 21.6626 11.358 29.1323 3.49476C29.5058 4.49326 30.0037 5.49176 30.3772 6.49026C29.8792 9.23614 29.3813 12.1068 29.0078 14.9775C28.6343 14.7279 28.3853 14.3535 28.0118 14.1038C28.2608 15.976 28.3853 17.973 28.6343 19.8452C27.8873 23.7144 27.2649 27.4588 26.5179 31.328C26.0199 32.5761 25.6464 33.6994 25.1484 34.8228Z" fill="#F8D63A"/>
<path d="M54.0311 69.6455C46.1879 66.8997 38.2202 64.029 30.377 61.2831C33.6138 58.662 36.8507 56.1658 40.2121 53.5447C40.5856 53.9191 41.0835 54.4184 41.457 54.7928C46.5613 51.9221 51.5412 49.0514 56.6455 46.3055C56.521 49.5507 56.521 52.7958 56.3965 56.0409C56.272 54.668 56.023 53.1702 55.774 50.7988C55.1515 57.7883 54.529 63.7793 54.0311 69.6455Z" fill="#E29728"/>
<path d="M144.166 47.0544C144.29 47.9281 144.415 48.9266 144.539 49.8003C144.166 51.4229 143.792 53.1702 143.543 54.7928C138.937 52.2966 134.455 49.8003 129.849 47.304C129.849 45.5567 129.849 43.9341 129.849 42.1867C132.961 33.9491 136.198 25.7114 140.306 14.9775C141.053 21.7174 141.551 25.7114 142.049 29.8303C142.049 31.8273 142.049 33.6994 142.049 35.6965C142.796 39.5656 143.543 43.31 144.166 47.0544Z" fill="#ECB531"/>
<path d="M129.849 47.304C134.455 49.8003 138.937 52.2966 143.543 54.7928C143.917 54.4184 144.415 53.9191 144.788 53.5447C148.15 56.1658 151.387 58.662 154.748 61.2831C146.905 63.7793 139.062 66.1508 131.094 68.647C130.347 62.0319 129.475 55.5417 128.729 48.9266C129.102 48.4274 129.475 47.8033 129.849 47.304Z" fill="#E29728"/>
<path d="M56.5213 46.3055C51.417 49.1762 46.4372 52.0469 41.3329 54.7928C40.9594 53.1702 40.7104 51.4229 40.3369 49.8003C40.4614 48.9266 40.5859 48.0529 40.5859 47.0544C42.2043 39.316 43.8228 31.4528 45.5657 23.4648C46.9352 24.9626 47.9311 26.0859 49.0516 27.2092C51.666 33.6994 54.1559 39.9401 56.5213 46.3055Z" fill="#ECB531"/>
<path d="M99.8457 142.162C102.46 133.799 104.95 125.562 107.564 117.199C110.303 119.446 112.918 121.568 115.657 123.814L115.781 124.314C116.653 127.184 117.524 130.18 118.395 133.05C118.022 133.175 117.524 133.3 117.151 133.3C111.424 136.296 105.572 139.166 99.8457 142.162Z" fill="#E4622F"/>
<path d="M77.4357 117.199C80.0501 125.562 82.54 133.799 85.1544 142.162C79.4276 139.666 73.7008 137.044 67.974 134.548C67.725 133.799 67.6006 132.926 67.3516 132.177C67.974 129.556 68.5965 127.059 69.219 124.438L69.3435 123.939C71.9579 121.692 74.6968 119.446 77.4357 117.199Z" fill="#E4622F"/>
<path d="M63.8665 164.628C63.8665 163.38 63.8666 162.132 63.7421 160.884C63.3686 159.76 62.9951 158.637 62.7461 157.639C62.9951 156.266 63.3686 155.017 63.6176 153.645C63.7421 154.019 63.8666 154.393 63.991 154.768C68.9709 161.882 73.8262 168.872 78.806 175.986C77.1875 178.857 75.5691 181.727 73.8262 184.598C72.9547 185.846 72.0832 186.97 71.2118 188.218C69.9668 185.347 68.7219 182.476 67.4769 179.73C67.3524 178.607 67.2279 177.609 67.2279 176.485C66.481 173.864 65.734 171.243 64.987 168.622C64.987 167.748 64.987 166.75 64.987 165.876C64.6135 165.377 64.24 165.002 63.8665 164.628Z" fill="#CE2527"/>
<path d="M119.889 168.497C119.515 169.246 119.017 170.12 118.644 170.869C118.519 170.993 118.27 171.118 118.27 171.243C118.27 171.493 118.395 171.867 118.395 172.117C118.146 173.49 117.897 174.988 117.648 176.36C117.523 177.484 117.399 178.482 117.399 179.606C116.154 182.476 114.909 185.222 113.664 188.093C112.793 186.97 112.046 185.721 111.174 184.598C109.556 181.727 107.813 178.857 106.194 175.986C111.174 168.872 116.029 161.882 121.009 154.768C121.134 154.393 121.258 154.019 121.383 153.645C121.632 155.017 122.005 156.266 122.254 157.639C121.881 158.762 121.507 159.885 121.258 161.008C121.258 162.257 121.258 163.505 121.134 164.628C120.76 165.002 120.387 165.377 120.013 165.751C119.889 166.625 119.889 167.624 119.889 168.497Z" fill="#CE2527"/>
<path d="M134.829 100.974C139.809 103.095 144.788 105.092 149.768 107.214C150.142 107.589 150.64 108.088 151.013 108.462C151.013 108.837 151.013 109.211 151.013 109.71C142.672 110.709 134.206 111.583 125.865 112.581C125.118 112.456 124.371 112.332 123.624 112.207C122.753 109.461 121.881 106.59 121.01 103.844C125.616 102.846 130.222 101.972 134.829 100.974Z" fill="#D97529"/>
<path d="M77.4359 117.199C74.697 119.446 72.0826 121.568 69.3437 123.814C66.7293 119.945 63.9904 116.076 61.376 112.207C61.7495 110.959 62.1229 109.71 62.6209 108.462C62.7454 108.088 62.7454 107.713 62.7454 107.339C63.1189 106.091 63.4924 104.968 63.8659 103.719C68.4722 107.089 72.954 110.459 77.5604 113.954C77.5604 115.077 77.4359 116.076 77.4359 117.199Z" fill="#BF3627"/>
<path d="M121.01 103.844C121.881 106.59 122.753 109.461 123.624 112.207C121.01 116.076 118.271 119.945 115.657 123.814C112.918 121.568 110.303 119.446 107.564 117.199C107.44 116.076 107.44 115.077 107.315 113.954C111.922 110.584 116.528 107.214 121.01 103.844Z" fill="#BF3627"/>
<path d="M106.319 113.33C104.451 114.204 102.459 115.077 99.8449 116.201C98.4754 110.709 97.2305 105.966 95.9855 100.974C94.3671 100.724 92.7486 100.474 89.7607 99.975C89.7607 96.1058 89.7607 92.3614 89.7607 88.4922H89.8852C91.6282 88.4922 93.3711 88.4922 94.9895 88.4922H95.114C95.4875 89.3659 95.7365 90.2396 96.11 91.1133C96.11 93.2351 96.2345 95.2321 96.2345 97.354C97.4795 97.7284 98.7244 98.1028 99.8449 98.4773C102.086 103.345 104.202 108.337 106.319 113.33Z" fill="#F8CA61"/>
<path d="M117.399 179.606C117.524 178.482 117.648 177.484 117.648 176.36C122.877 175.612 128.231 174.863 134.206 173.989C137.194 179.606 140.307 185.347 143.419 191.088C141.8 191.463 140.182 191.712 138.564 192.087C136.447 188.342 134.331 184.598 132.09 180.479C127.235 180.23 122.255 179.98 117.399 179.606Z" fill="#B42E25"/>
<path d="M67.2276 176.36C67.352 177.484 67.4765 178.482 67.4765 179.606C62.7457 179.855 58.0149 180.23 52.9106 180.604C50.7942 184.348 48.5533 188.218 46.4368 192.212C44.8184 191.837 43.2 191.588 41.457 191.213C44.3204 185.721 47.1838 180.354 50.4207 174.363C56.272 174.988 61.7498 175.736 67.2276 176.36Z" fill="#B42E25"/>
<path d="M125.864 112.581C134.205 111.583 142.671 110.709 151.012 109.71C151.386 109.71 151.759 109.71 152.257 109.835C147.277 113.58 142.298 117.324 137.318 121.068C133.458 118.198 129.724 115.327 125.864 112.581Z" fill="#CB5828"/>
<path d="M51.4165 110.959C52.6614 110.959 53.9064 110.959 55.1513 111.083C56.5208 111.583 57.7657 112.082 59.1352 112.581C55.2758 115.452 51.541 118.198 47.6816 121.068C42.7018 117.324 37.722 113.58 32.7422 109.835C33.1157 109.835 33.6137 109.71 33.9871 109.71C39.8384 110.085 45.5652 110.459 51.4165 110.959Z" fill="#CB5828"/>
<path d="M47.6816 120.944C51.541 118.073 55.2759 115.327 59.1352 112.456C59.8822 112.331 60.6292 112.207 61.3761 112.207C63.9905 116.076 66.7294 119.945 69.3438 123.814L69.2193 124.314C61.9986 123.19 54.9024 122.067 47.6816 120.944Z" fill="#B42125"/>
<path d="M125.865 112.581C129.724 115.327 133.459 118.198 137.318 120.944C130.098 122.067 123.001 123.19 115.781 124.314L115.656 123.814C118.271 119.945 121.01 116.076 123.624 112.207C124.371 112.331 125.118 112.456 125.865 112.581Z" fill="#B42125"/>
<path d="M62.746 157.639C63.1195 158.762 63.493 159.885 63.742 160.884C57.1437 158.387 50.421 155.891 43.8227 153.52C43.5738 152.396 43.4493 151.398 43.2003 150.275C41.9553 150.025 41.0839 149.775 40.0879 149.651C47.6821 152.272 55.2763 155.017 62.746 157.639Z" fill="#C4562B"/>
<path d="M121.134 161.008C121.507 159.885 121.881 158.762 122.13 157.639C129.226 155.017 136.447 152.272 143.543 149.651C142.671 150.899 141.8 152.272 140.929 153.52C134.455 156.016 127.732 158.512 121.134 161.008Z" fill="#C4562B"/>
<path d="M85.2789 97.4788C86.0259 103.22 86.8974 108.837 88.0178 117.074C82.789 115.077 80.6726 114.204 78.6807 113.455C80.7971 108.088 83.038 102.721 85.2789 97.4788Z" fill="#F8CA61"/>
<path d="M121.258 148.527C120.76 147.279 120.387 146.031 119.889 144.658C125.242 142.661 130.595 140.539 136.073 138.542C136.945 139.416 137.816 140.29 138.687 141.038C132.836 143.535 127.109 146.031 121.258 148.527Z" fill="#D37530"/>
<path d="M46.1881 141.038C41.7063 139.166 37.1 137.169 32.6182 135.297C33.7386 133.425 34.9836 131.677 36.104 129.805C40.3369 132.676 44.5697 135.671 48.927 138.542C48.0556 139.416 47.0596 140.165 46.1881 141.038Z" fill="#E19535"/>
<path d="M46.1875 141.038C47.059 140.165 48.0549 139.291 48.9264 138.542C54.2797 140.539 59.633 142.661 65.1108 144.658C64.6128 145.906 64.2393 147.154 63.7413 148.527C57.8901 146.031 52.0388 143.535 46.1875 141.038Z" fill="#D37530"/>
<path d="M138.688 141.038C137.816 140.165 136.945 139.291 136.073 138.542C140.306 135.671 144.414 132.801 148.647 129.93C149.892 131.802 151.137 133.55 152.382 135.422C147.776 137.294 143.294 139.166 138.688 141.038Z" fill="#E19535"/>
<path d="M119.889 168.497C119.889 167.624 119.889 166.625 119.889 165.751C120.262 165.377 120.636 165.002 121.009 164.628C127.234 164.628 133.583 164.628 139.808 164.628C139.808 165.876 139.683 166.999 139.683 168.248C133.085 168.248 126.487 168.372 119.889 168.497Z" fill="#B42E25"/>
<path d="M64.9861 165.751C64.9861 166.625 64.9861 167.624 64.9861 168.497C58.3879 168.372 51.7896 168.248 45.0669 168.123C45.0669 166.875 44.9424 165.751 44.9424 164.503C51.1671 164.503 57.5164 164.503 63.7412 164.503C64.2392 165.003 64.6126 165.377 64.9861 165.751Z" fill="#B42E25"/>
<path d="M40.2119 149.651C41.0833 149.9 42.0793 150.025 43.3242 150.275C43.5732 151.398 43.6977 152.396 43.9467 153.52C39.3404 154.019 34.7341 154.393 30.1277 154.893C28.3848 153.52 26.7664 152.022 25.0234 150.649C30.0032 150.275 35.1076 150.025 40.2119 149.651Z" fill="#D37530"/>
<path d="M141.053 153.52C141.924 152.272 142.796 150.899 143.667 149.651C148.647 149.775 153.627 149.9 158.731 150.025C157.486 151.648 156.366 153.27 155.121 154.893C150.39 154.518 145.659 154.019 141.053 153.52Z" fill="#D37530"/>
<path d="M45.0671 164.628C45.0671 165.876 45.1916 166.999 45.1916 168.248C40.5852 170.245 35.9789 172.366 31.2481 174.363C30.1276 173.24 29.0072 172.117 27.8867 171.118C33.6135 168.872 39.3403 166.75 45.0671 164.628Z" fill="#C4562B"/>
<path d="M139.809 168.123C139.809 166.875 139.933 165.751 139.933 164.503C145.411 166.375 150.764 168.248 156.242 170.12C155.37 171.493 154.499 172.866 153.752 174.239C149.021 172.242 144.415 170.245 139.809 168.123Z" fill="#C4562B"/>
<path d="M96.2349 97.354C96.2349 95.2321 96.1104 93.2351 96.1104 91.1133C96.1104 90.2396 96.2349 89.3659 96.2349 88.6171C96.7328 79.8802 97.2308 71.1433 97.7288 62.4064L98.2268 62.2816H98.7248C99.4717 70.644 100.094 79.0065 100.841 87.2441C100.468 90.4893 100.094 93.7344 99.5962 97.1043C98.6003 97.2292 97.3553 97.2292 96.2349 97.354Z" fill="#EA863E"/>
<path d="M49.1756 27.334C48.0552 26.2107 47.0592 24.9626 45.6898 23.5896C43.9468 31.5776 42.3284 39.316 40.71 47.1792C41.9549 37.319 43.0754 27.4588 44.5693 14.9775C46.6857 20.7189 47.9307 23.9641 49.1756 27.334Z" fill="#E9AE44"/>
<path d="M152.382 135.297C151.137 133.425 149.892 131.677 148.647 129.805C152.507 127.309 156.491 124.938 162.84 120.819C158.234 127.309 155.246 131.303 152.382 135.297Z" fill="#E9AE44"/>
<path d="M36.1041 129.805C34.9836 131.677 33.7387 133.425 32.6182 135.297C29.7548 131.303 26.767 127.309 22.0361 120.694C28.5099 124.938 32.3692 127.309 36.1041 129.805Z" fill="#E9AE44"/>
<path d="M100.966 87.3689C100.219 79.0065 99.5966 70.644 98.8496 62.4064C99.5966 62.4064 100.344 62.4064 100.966 62.4064C100.966 70.644 100.966 79.0065 100.966 87.3689Z" fill="#F9B272"/>
<path d="M87.1472 62.1568C86.4002 62.2816 85.7777 62.2816 85.0308 62.4064C84.6573 62.4064 84.2838 62.2816 83.9103 62.2816C81.7939 56.0409 79.802 49.8003 77.6855 43.6845C77.9345 43.8093 78.1835 43.9341 78.4325 43.8093C81.4204 49.9251 84.2838 56.0409 87.1472 62.1568Z" fill="#F4C67B"/>
<path d="M41.5811 191.213C43.1995 191.588 44.8179 191.837 46.5609 192.212C45.9384 196.705 45.3159 201.073 43.6975 212.182C42.4525 200.824 41.9545 195.956 41.5811 191.213Z" fill="#C4562B"/>
<path d="M100.965 62.2816C100.218 62.2816 99.4715 62.2816 98.849 62.2816H98.351L97.7285 62.4064C100.592 56.1658 103.58 50.0499 106.443 43.8093C106.692 43.8093 106.941 43.8093 107.19 43.6845C105.198 49.9251 103.082 56.0409 100.965 62.2816Z" fill="#F4C67B"/>
<path d="M138.563 192.212C140.182 191.837 141.8 191.588 143.419 191.213C143.045 195.956 142.547 200.824 141.551 212.431C139.933 201.198 139.186 196.705 138.563 192.212Z" fill="#C4562B"/>
<path d="M83.9102 62.2816C84.2836 62.2816 84.6571 62.2816 85.0306 62.4064C84.6571 70.644 84.4081 79.0065 84.0346 87.2441C84.0346 79.0065 84.0347 70.644 83.9102 62.2816Z" fill="#F9B272"/>
<path d="M155.993 62.1568C155.869 61.7823 155.62 61.4079 155.246 61.2831C156.367 52.5462 157.487 43.8093 158.607 35.0724C158.981 35.0724 159.23 35.0724 159.603 34.9476V35.1972C159.603 36.3205 159.728 37.4438 159.728 38.5671C160.101 38.9416 160.599 39.4408 160.973 39.8153C160.973 40.1897 161.097 40.5642 161.097 40.9386C160.226 48.0529 159.354 55.2921 158.483 62.4064C157.612 62.4064 156.74 62.2816 155.993 62.1568Z" fill="#E19535"/>
<path d="M154.997 154.893C156.242 153.27 157.362 151.648 158.607 150.025C161.471 154.019 164.334 158.138 167.322 162.132C166.824 162.132 166.451 162.257 165.953 162.257C162.342 159.76 158.607 157.389 154.997 154.893Z" fill="#EC9E4A"/>
<path d="M25.0239 150.649C26.7669 152.022 28.3853 153.52 30.1282 154.893C26.3934 157.389 22.783 159.76 19.0482 162.257C18.5502 162.257 18.1767 162.132 17.6787 162.132C20.1686 158.263 22.534 154.518 25.0239 150.649Z" fill="#EC9E4A"/>
<path d="M153.627 174.239C154.498 172.866 155.37 171.493 156.117 170.12C157.735 174.613 159.229 179.106 162.964 189.84C157.735 180.979 155.743 177.609 153.627 174.239Z" fill="#D37530"/>
<path d="M27.8871 170.993C29.0076 172.117 30.128 173.24 31.2485 174.239C29.2566 177.484 27.2646 180.854 23.4053 187.344C25.5217 179.606 26.7666 175.237 27.8871 170.993Z" fill="#D37530"/>
<path d="M178.401 29.9551C178.401 29.0814 178.401 28.2077 178.401 27.334C180.02 36.0709 181.638 44.8078 183.381 53.5447C183.008 53.5447 182.51 53.5447 182.136 53.6695C180.891 45.8063 179.646 37.8183 178.401 29.9551Z" fill="#F6BC4D"/>
<path d="M1.61844 69.8952C1.24495 71.1433 0.871467 72.2666 0.497981 73.5147C0.373486 73.8892 0.124495 74.3884 0 74.8877C0.497981 67.7733 1.12046 60.659 1.61844 53.6695C1.99192 53.6695 2.48991 53.6695 2.86339 53.6695C2.48991 59.0364 1.99192 64.4034 1.61844 69.8952Z" fill="#E9AE44"/>
<path d="M182.137 53.6695C182.51 53.6695 183.008 53.6695 183.382 53.5447C183.88 60.659 184.502 67.7733 185 74.7629C184.876 74.2636 184.627 73.7644 184.502 73.2651C184.129 72.017 183.755 70.8937 183.382 69.6455C182.884 64.4034 182.51 59.0364 182.137 53.6695Z" fill="#E9AE44"/>
<path d="M63.8657 103.719C63.4922 104.968 63.1188 106.091 62.7453 107.339C58.1389 105.092 53.6571 102.846 49.0508 100.599C53.9061 101.722 58.8859 102.721 63.8657 103.719Z" fill="#D97529"/>
<path d="M6.59814 27.334C6.59814 28.5821 6.59814 29.7054 6.59814 30.9536C5.35319 36.4453 4.23273 41.9371 2.98778 47.304C2.98778 46.0559 2.86328 44.8078 2.86328 43.5597C4.10823 38.1927 5.35319 32.7009 6.59814 27.334Z" fill="#F6BC4D"/>
<path d="M128.729 48.9266C129.475 55.5417 130.347 62.0319 131.094 68.647C130.347 69.3959 129.6 70.1448 128.978 70.8937C128.853 67.3989 128.853 63.9041 128.729 60.2846C128.729 56.5402 128.729 52.7958 128.729 48.9266Z" fill="#EC9E4A"/>
<path d="M54.0312 69.6455C54.5292 63.7793 55.1517 57.7883 55.7742 50.7988C56.0232 53.2951 56.2722 54.668 56.3967 56.0409C56.2722 61.0334 56.1477 66.026 56.0232 70.8937C55.4007 70.5192 54.6537 70.1448 54.0312 69.6455Z" fill="#EC9E4A"/>
<path d="M128.728 48.9266C128.728 52.671 128.728 56.5402 128.604 60.2846C128.977 54.2936 129.35 48.1777 129.724 42.1867C129.724 43.9341 129.724 45.5567 129.724 47.304C129.475 47.8033 129.101 48.4274 128.728 48.9266Z" fill="#E9AE44"/>
<path d="M67.3522 132.052C67.6012 132.801 67.7257 133.674 67.9747 134.423C66.9788 137.793 66.1073 141.163 65.1113 144.533C65.8583 140.414 66.6053 136.171 67.3522 132.052Z" fill="#EC8E5C"/>
<path d="M144.166 47.0544C143.419 43.31 142.672 39.5656 141.925 35.6965C142.049 35.0724 142.049 34.3235 142.174 33.6994C142.921 38.1927 143.543 42.5612 144.166 47.0544Z" fill="#E9AE44"/>
<path d="M33.987 109.71C33.6135 109.71 33.1155 109.835 32.742 109.835C32.3685 109.461 31.8706 108.962 31.4971 108.587C31.4971 105.716 31.4971 102.721 31.4971 99.8502C32.3685 102.721 33.1155 105.716 33.987 108.587C33.987 108.837 33.987 109.211 33.987 109.71Z" fill="#D37530"/>
<path d="M26.5176 62.4064C27.2645 59.5357 27.887 56.5402 28.634 53.6695C28.883 56.0409 29.0075 58.2876 29.2565 60.659C29.132 61.1583 29.132 61.5327 29.0075 62.032C28.136 62.1568 27.389 62.2816 26.5176 62.4064Z" fill="#EC9E4A"/>
<path d="M95.1141 88.4922C93.3711 88.4922 91.6282 88.4922 90.0098 88.4922C90.6322 87.2441 91.3792 85.996 92.3752 83.999C93.4956 85.8712 94.2426 87.2441 95.1141 88.4922Z" fill="#F4C67B"/>
<path d="M78.5567 43.8093C78.3078 43.8093 78.0588 43.8093 77.8098 43.6845C77.0628 42.4363 76.4403 41.1882 75.6934 39.8153C75.8179 39.6905 76.0668 39.5657 76.1913 39.5657C76.9383 40.9386 77.6853 42.4363 78.5567 43.8093Z" fill="#C37960"/>
<path d="M107.19 43.6845C106.941 43.8093 106.692 43.8093 106.443 43.8093C107.19 42.4363 107.813 41.0634 108.56 39.6905C108.809 39.8153 108.933 39.9401 109.182 40.0649C108.56 41.1882 107.937 42.4363 107.19 43.6845Z" fill="#C37960"/>
<path d="M155.868 3.49476C155.495 4.49326 154.997 5.49176 154.623 6.49026C154.125 4.99251 153.752 3.61957 152.756 0.124813C154.623 2.24663 155.246 2.87069 155.868 3.49476Z" fill="#EC8E5C"/>
<path d="M30.3768 6.36545C30.0033 5.36695 29.5053 4.36845 29.1318 3.36994C29.7543 2.74588 30.2523 2.12182 32.3687 -0.124813C31.2483 3.49476 30.7503 4.99251 30.3768 6.36545Z" fill="#EC8E5C"/>
<path d="M28.6342 19.8452C28.3852 17.973 28.2607 15.976 28.0117 14.1038C28.3852 14.3535 28.6342 14.7279 29.0077 14.9775C28.8832 16.6001 28.7587 18.2227 28.6342 19.8452Z" fill="#F8CA61"/>
<path d="M142.174 33.6995C142.049 34.3235 142.049 35.0724 141.925 35.6965C141.925 33.6995 141.925 31.8273 141.925 29.8303C142.049 31.2032 142.174 32.4513 142.174 33.6995Z" fill="#F6BC4D"/>
<path d="M117.15 133.425C117.524 133.3 118.022 133.175 118.395 133.175C118.52 134.798 118.644 136.545 118.769 138.168C118.146 136.545 117.648 134.923 117.15 133.425Z" fill="#EC8E5C"/>
<path d="M165.952 162.257C166.45 162.257 166.824 162.132 167.322 162.132C167.82 162.756 168.318 163.505 174.791 171.742C167.446 163.879 166.699 163.13 165.952 162.257Z" fill="#C37960"/>
<path d="M17.6787 162.132C18.1767 162.132 18.5501 162.257 19.0481 162.257C18.3011 163.005 17.5542 163.879 9.95996 172.117C16.6827 163.505 17.1807 162.756 17.6787 162.132Z" fill="#C37960"/>
<path d="M25.1484 34.8228C25.6464 33.6994 26.1444 32.5761 26.5179 31.328C26.3934 32.5761 26.3934 33.8243 26.2689 34.9476C25.8954 34.9476 25.5219 34.9476 25.1484 34.8228Z" fill="#F8CA61"/>
<path d="M159.603 34.9476C159.23 35.0724 158.981 35.0724 158.607 35.0724C158.483 33.8243 158.483 32.7009 158.358 31.4528C158.856 32.5761 159.23 33.8243 159.603 34.9476Z" fill="#F8CA61"/>
<path d="M2.86315 43.5597C2.86315 44.8078 2.98765 46.0559 2.98765 47.304C2.86315 47.6785 2.86315 48.0529 2.86315 48.5522C2.48966 48.5522 2.24067 48.5522 1.86719 48.5522C2.11618 46.9296 2.48966 45.1822 2.86315 43.5597Z" fill="#E19535"/>
<path d="M144.788 53.5447C144.414 53.9191 143.916 54.4184 143.543 54.7928C143.916 53.1702 144.29 51.4229 144.539 49.8003C144.663 51.0484 144.788 52.2966 144.788 53.5447Z" fill="#F6BC4D"/>
<path d="M71.2109 188.218C72.0824 186.97 72.9539 185.846 73.8253 184.598C73.8253 185.472 73.9498 186.345 73.9498 187.219C73.5763 187.594 73.2029 188.093 72.8294 188.467C72.3314 188.342 71.8334 188.342 71.2109 188.218Z" fill="#B42E25"/>
<path d="M72.4564 192.961C71.9584 194.708 71.5849 196.455 71.0869 198.078C71.4604 196.455 71.9584 194.708 72.4564 192.961Z" fill="#EC9E4A"/>
<path d="M40.4609 49.8003C40.8344 51.4229 41.0834 53.1702 41.4569 54.7928C41.0834 54.4184 40.5854 53.9191 40.2119 53.5447C40.2119 52.2966 40.3364 51.0484 40.4609 49.8003Z" fill="#F6BC4D"/>
<path d="M111.174 184.598C112.046 185.721 112.793 186.97 113.664 188.093C113.166 188.218 112.668 188.342 112.17 188.467C111.797 188.093 111.423 187.594 111.05 187.219C111.05 186.345 111.05 185.472 111.174 184.598Z" fill="#B42E25"/>
<path d="M96.2344 97.354C97.4793 97.354 98.5998 97.2292 99.8447 97.2292C99.8447 97.6036 99.9692 98.1028 99.9692 98.4773C98.7243 98.1028 97.4793 97.7284 96.2344 97.354Z" fill="#EC9E4A"/>
<path d="M121.383 153.645C121.259 154.019 121.134 154.393 121.01 154.768C120.512 154.393 120.014 154.019 119.516 153.645C120.014 152.771 120.512 151.772 121.01 150.899C121.01 151.772 121.134 152.771 121.383 153.645Z" fill="#EC8E5C"/>
<path d="M113.913 198.203C113.665 196.955 113.54 195.831 113.291 194.583C113.416 195.831 113.665 196.955 113.913 198.203Z" fill="#EC9E4A"/>
<path d="M2.86312 53.5447C2.48963 53.5447 1.99165 53.5447 1.61816 53.5447C1.74266 52.2966 1.74266 51.0484 1.86715 49.8003C2.24064 49.8003 2.61413 49.8003 2.86312 49.8003C2.86312 51.0484 2.86312 52.2966 2.86312 53.5447Z" fill="#F6BC4D"/>
<path d="M63.9907 154.768C63.8662 154.393 63.7417 154.019 63.6172 153.645C63.7417 152.771 63.8662 151.772 63.9907 150.774C64.4887 151.648 64.8621 152.646 65.3601 153.52C64.9866 154.019 64.4887 154.393 63.9907 154.768Z" fill="#EC8E5C"/>
<path d="M96.2347 88.6171C96.2347 89.4908 96.1102 90.3644 96.1102 91.1133C95.7367 90.2396 95.4877 89.3659 95.1143 88.4922C95.4877 88.4922 95.8612 88.4922 96.2347 88.6171Z" fill="#EC9E4A"/>
<path d="M152.134 109.71C151.76 109.71 151.387 109.71 150.889 109.586C150.889 109.211 150.889 108.837 150.889 108.337C151.262 108.337 151.76 108.337 152.134 108.337C152.507 108.337 152.756 108.337 153.13 108.337L153.379 108.462C153.005 108.962 152.632 109.336 152.134 109.71Z" fill="#D67629"/>
<path d="M2.86315 49.8003C2.48966 49.8003 2.11618 49.8003 1.86719 49.8003C1.86719 49.4259 1.86719 48.9266 1.86719 48.5522C2.24067 48.5522 2.48966 48.5522 2.86315 48.5522C2.86315 48.9266 2.86315 49.4259 2.86315 49.8003Z" fill="#E9AE44"/>
<path d="M118.395 172.117C118.395 171.867 118.271 171.493 118.271 171.243C118.271 171.118 118.52 170.993 118.644 170.869C118.52 171.368 118.519 171.742 118.395 172.117Z" fill="#B42E25"/>
<path d="M111.174 184.598C111.049 185.472 111.049 186.345 110.925 187.219C110.178 188.592 109.306 189.965 108.684 191.213C97.9773 191.213 87.5197 191.213 76.4396 191.213C75.8171 190.215 74.9457 188.717 73.9497 187.219C73.9497 186.345 73.8252 185.472 73.8252 184.598C75.4436 181.727 77.0621 178.857 78.805 175.986C80.9214 166.001 82.9134 155.891 85.0298 145.906C87.5197 147.529 90.0096 149.026 92.4995 150.649C94.9894 149.026 97.4793 147.529 99.9692 145.906C102.086 155.891 104.078 166.001 106.194 175.986C107.812 178.857 109.555 181.727 111.174 184.598Z" fill="#DC4227"/>
<path d="M85.0299 145.906C82.9135 155.891 80.9216 166.001 78.8052 175.986C73.8254 168.872 68.97 161.882 63.9902 154.768C64.4882 154.393 64.9862 154.019 65.4842 153.645C71.9579 151.023 78.4317 148.527 85.0299 145.906Z" fill="#E4622F"/>
<path d="M106.194 175.986C104.078 166.001 102.086 155.891 99.9697 145.906C106.443 148.527 112.917 151.023 119.515 153.645C120.013 154.019 120.511 154.393 121.009 154.768C116.03 161.882 111.174 168.997 106.194 175.986Z" fill="#E4622F"/>
<path d="M33.9868 108.462C33.1153 105.592 32.3684 102.596 31.4969 99.7254C31.1234 88.1178 30.6254 76.5102 30.252 64.7778C34.9828 75.8862 39.5891 86.9945 44.4444 98.4773C41.083 101.598 38.2197 104.468 35.2318 107.214C34.8583 107.713 34.3603 108.088 33.9868 108.462Z" fill="#E59528"/>
<path d="M183.381 69.8952C183.755 71.1433 184.128 72.2666 184.502 73.5147C175.787 69.8952 167.197 66.2756 158.482 62.656C159.354 55.5417 160.225 48.3025 161.097 41.1882C168.567 50.674 175.912 60.2846 183.381 69.8952Z" fill="#E29728"/>
<path d="M152.258 108.462C151.885 108.462 151.387 108.462 151.013 108.462C150.64 108.088 150.142 107.589 149.768 107.214C146.78 104.468 143.917 101.722 140.556 98.4773C145.411 86.9945 150.142 75.8862 154.748 64.7778C154.25 77.2591 153.877 89.7404 153.379 102.097C153.379 102.971 153.379 103.844 153.379 104.718C153.379 105.467 153.379 106.216 153.254 107.089C152.881 107.589 152.632 107.963 152.258 108.462Z" fill="#E59528"/>
<path d="M152.258 108.462C152.631 108.088 153.005 107.589 153.378 107.214C153.378 107.589 153.378 108.088 153.254 108.462C152.88 108.462 152.507 108.462 152.258 108.462Z" fill="#D97529"/>
<path d="M33.9873 108.462C34.3608 108.088 34.8588 107.589 35.2323 107.214C38.7181 106.715 42.204 106.216 46.5613 105.592C47.6818 106.84 49.5492 108.837 51.4166 110.834C45.5654 110.459 39.8386 109.96 33.9873 109.586C33.9873 109.211 33.9873 108.837 33.9873 108.462Z" fill="#D97529"/>
<path d="M61.3761 112.207C60.6292 112.331 59.8822 112.456 59.1352 112.456C57.7658 111.957 56.5208 111.458 55.1514 110.959C57.6413 110.085 60.1312 109.211 62.6211 108.462C62.1231 109.71 61.7496 110.959 61.3761 112.207Z" fill="#D97529"/>
<path d="M108.684 230.779C97.853 230.779 87.1464 230.779 76.3153 230.779C74.6968 225.412 73.0784 219.92 71.46 214.553C85.4034 214.553 99.4714 214.553 113.415 214.553C111.921 219.92 110.302 225.412 108.684 230.779Z" fill="#CB5828"/>
<path d="M183.381 69.8952C175.911 60.2846 168.566 50.674 161.096 41.0634C161.096 40.689 160.972 40.3145 160.972 39.9401C160.599 39.5657 160.101 39.0664 159.727 38.692C159.727 37.5686 159.603 36.4453 159.603 35.322C165.827 33.5746 172.052 31.8273 178.277 30.0799C179.522 37.9431 180.767 45.8063 182.012 53.7943C182.51 59.0364 182.883 64.4034 183.381 69.8952Z" fill="#ECB728"/>
<path d="M64.9867 165.751C64.6132 165.377 64.2397 165.002 63.8662 164.628C64.2397 165.002 64.6132 165.377 64.9867 165.751Z" fill="#551311"/>
<path d="M121.134 164.628C120.761 165.002 120.387 165.377 120.014 165.751C120.387 165.377 120.761 165.002 121.134 164.628Z" fill="#551311"/>
<path d="M159.728 38.5671C160.101 38.9416 160.599 39.4408 160.973 39.8153C160.599 39.4408 160.226 39.0664 159.728 38.5671Z" fill="#E29728"/>
</g>
<defs>
<clipPath id="clip0">
<rect width="185" height="250" fill="white"/>
</clipPath>
</defs>
</svg>
