<svg width="29" height="25" viewBox="0 0 29 25" fill="none" xmlns="http://www.w3.org/2000/svg">
<path d="M18.1119 25H14.7729L12.7404 16.0167L9.11109 16.9003C8.96591 17.6366 8.67556 18.2257 8.38521 18.8148C7.07864 21.0238 4.32033 21.6129 2.14271 20.2875C-0.0349098 18.962 -0.615608 16.164 0.690963 13.955C1.99753 11.746 4.75585 11.1569 6.93347 12.4823C7.51417 12.7768 7.94969 13.3659 8.24004 13.8077L11.8694 12.9241L10.9984 9.24242C10.4177 9.09515 9.83696 8.80061 9.25626 8.50608C7.22382 7.18068 6.49794 4.3826 7.80451 2.17359C9.11108 -0.035413 11.8694 -0.624481 14.047 0.700923C16.2246 2.02633 16.8053 4.8244 15.4988 7.03341C15.2084 7.62248 14.6277 8.06428 14.1922 8.35881L18.1119 25ZM5.77207 14.3968C4.75585 13.6604 3.3041 14.1022 2.57823 15.1331C1.85236 16.164 2.28788 17.6366 3.30411 18.2257C4.32033 18.962 5.77207 18.6675 6.49794 17.4894C7.07864 16.4585 6.78829 14.9858 5.77207 14.3968ZM13.6115 5.85527C14.3374 4.8244 13.9018 3.35173 12.8856 2.6154C11.8694 1.87906 10.4177 2.32086 9.69178 3.35173C9.11109 4.3826 9.40143 5.85527 10.5628 6.59161C11.5791 7.18068 13.0308 6.88614 13.6115 5.85527ZM14.1922 13.6604C13.9018 13.5132 13.6115 13.5132 13.4663 13.8077C13.3211 14.1022 13.3211 14.3968 13.6115 14.544C13.9018 14.6913 14.1922 14.6913 14.3374 14.3968C14.6277 14.1022 14.4825 13.8077 14.1922 13.6604ZM26.0965 9.53695L16.6602 11.746L17.386 14.9858L28.2741 12.335L29 11.3042L26.0965 9.53695Z" fill="#949494"/>
</svg>
